<svg preserveAspectRatio="none" overflow="visible" style="display: block;" width="120" height="34" viewBox="0 0 120 34" fill="none" xmlns="http://www.w3.org/2000/svg">
<g id="next-logo 1" clip-path="url(#clip0_0_8)">
<path id="Vector" d="M71.026 17.1198C70.858 16.8648 71.0384 16.5283 71.3484 16.5179L80.328 16.2139C80.4708 16.209 80.6052 16.2789 80.6808 16.3973L91.2792 32.9647C91.4456 33.225 91.254 33.5626 90.94 33.5626H82.0652C81.9292 33.5626 81.8024 33.495 81.7288 33.3832L71.026 17.1198Z" fill="white"/>
<path id="Vector_2" d="M78.3428 7.16259C78.2628 7.04445 78.2544 6.89313 78.3208 6.76717L81.6296 0.511106C81.6984 0.381263 81.8356 0.299711 81.9852 0.299711H89.5092C89.8108 0.299711 90.004 0.613634 89.8624 0.873933L83.154 13.2052C83.012 13.4667 82.6352 13.4846 82.4676 13.2378L78.3428 7.16259Z" fill="white"/>
<path id="Vector_3" d="M93.3352 7.14402C93.1144 7.14402 92.9352 6.96906 92.9352 6.75322V0.390805C92.9352 0.17497 93.1144 0 93.3352 0H119.6C119.821 0 120 0.174969 120 0.390805V6.75322C120 6.96906 119.821 7.14402 119.6 7.14402H111.162C110.941 7.14402 110.762 7.31899 110.762 7.53483V33.1717C110.762 33.3876 110.583 33.5625 110.362 33.5625H102.623C102.402 33.5625 102.223 33.3876 102.223 33.1717V7.53483C102.223 7.31899 102.044 7.14402 101.823 7.14402H93.3352Z" fill="white"/>
<path id="Vector_4" d="M70.1876 33.1417C70.0192 33.4036 69.7252 33.5626 69.4084 33.5626H61.6408C60.9112 33.5626 60.472 32.7725 60.8688 32.1744L68.8992 20.0776C71.1412 16.7004 70.8532 16.2704 68.5128 12.8856L60.7796 1.70197C60.3668 1.10492 60.8044 0.299711 61.542 0.299711H68.9644C69.2644 0.299711 69.5452 0.442551 69.7176 0.682474L80.6224 15.8722C80.8352 16.1683 80.8452 16.5602 80.6484 16.8665L70.1876 33.1417Z" fill="#C0BDF5"/>
<path id="Vector_5" d="M40.4868 13.7847C40.4868 13.2881 40.8988 12.8856 41.4068 12.8856H68.5128H70.8516C72.3984 12.8856 72.9132 20.0776 70.8516 20.0776H68.8992H41.4068C40.8988 20.0776 40.4868 19.6751 40.4868 19.1786V13.7847Z" fill="#C0BDF5"/>
<path id="Vector_6" d="M58.8896 33.1718C58.8896 33.3876 58.7104 33.5626 58.4896 33.5626H34.4456C34.2247 33.5626 34.0456 33.3876 34.0456 33.1718V0.690517C34.0456 0.474679 34.2247 0.299711 34.4456 0.299711H57.8756C58.0964 0.299711 58.2756 0.474679 58.2756 0.690517V6.84658C58.2756 7.06243 58.0964 7.23739 57.8756 7.23739H42.664C42.4432 7.23739 42.264 7.41235 42.264 7.62819V13.3198V20.0673V26.1866C42.264 26.4024 42.4432 26.5774 42.664 26.5774H58.4896C58.7104 26.5774 58.8896 26.7523 58.8896 26.9682V33.1718Z" fill="white"/>
<path id="Vector_7" d="M30.5735 33.4714C30.5735 33.6873 30.3944 33.8622 30.1735 33.8622H23.7009C23.5783 33.8622 23.4625 33.8073 23.3866 33.7132L9.15516 16.0497C8.92028 15.7582 8.44084 15.9204 8.44084 16.2914V33.4714C8.44084 33.6873 8.26176 33.8622 8.04084 33.8622H0.4C0.179086 33.8622 0 33.6873 0 33.4714V0.690517C0 0.474679 0.179086 0.299711 0.4 0.299711H6.87288C6.99532 0.299711 7.111 0.354501 7.18688 0.448405L22.1327 18.9509L30.4835 28.9598C30.5417 29.0295 30.5735 29.1167 30.5735 29.2067V33.4714Z" fill="white"/>
<path id="Vector_8" d="M22.2255 13.8934C22.1655 13.8231 22.1327 13.7346 22.1327 13.6431V0.690517C22.1327 0.474679 22.3118 0.299711 22.5327 0.299711H30.1735C30.3944 0.299711 30.5735 0.474679 30.5735 0.690517V22.5948C30.5735 22.9602 30.1059 23.1257 29.8663 22.8451L22.2255 13.8934Z" fill="#C0BDF5"/>
</g>
<defs>
<clipPath id="clip0_0_8">
<rect width="120" height="34" fill="white"/>
</clipPath>
</defs>
</svg>
