<svg preserveAspectRatio="none" overflow="visible" style="display: block;" width="30" height="30" viewBox="0 0 30 30" fill="none" xmlns="http://www.w3.org/2000/svg">
<g id="icon/nav/arrow-round-fill">
<path id="Subtract" fill-rule="evenodd" clip-rule="evenodd" d="M15 0C6.71573 0 0 6.71573 0 15C0 23.2843 6.71573 30 15 30C23.2843 30 30 23.2843 30 15C30 6.71573 23.2843 0 15 0ZM21.5851 15.8159C21.8015 15.5995 21.9231 15.306 21.9231 15C21.9231 14.694 21.8015 14.4005 21.5851 14.1841L16.9697 9.56872C16.5191 9.11812 15.7886 9.11812 15.338 9.56872C14.8874 10.0193 14.8873 10.7499 15.338 11.2005L17.9836 13.8462L9.23077 13.8462C8.59352 13.8462 8.07692 14.3627 8.07692 15C8.07692 15.6372 8.59352 16.1538 9.23077 16.1538L17.9836 16.1538L15.338 18.7995C14.8873 19.2501 14.8873 19.9807 15.338 20.4313C15.7886 20.8819 16.5191 20.8819 16.9697 20.4313L21.5851 15.8159Z" fill="white"/>
</g>
</svg>
